<svg width="2500" height="2500" viewBox="0 0 2500 2500" fill="none" xmlns="http://www.w3.org/2000/svg">
<g clip-path="url(#clip0_83_46)">
<mask id="mask0_83_46" style="mask-type:luminance" maskUnits="userSpaceOnUse" x="0" y="0" width="2500" height="2500">
<path d="M2500 0H0V2500H2500V0Z" fill="white"/>
</mask>
<g mask="url(#mask0_83_46)">
<path fill-rule="evenodd" clip-rule="evenodd" d="M0 0H2500V2500H0V0Z" fill="#002344"/>
<path fill-rule="evenodd" clip-rule="evenodd" d="M1999.29 1296.91V1201.21H2087.95V1182.06H1999.29V1086.02C2027.15 1082.68 2058.39 1082.68 2091.3 1086.02L2093.32 1068.55H1967.72V1301.97L1896.52 1218.35V1202.91C1929.42 1192.49 1946.9 1167.99 1946.9 1129.69C1946.9 1091.41 1906.93 1068.57 1873.69 1068.57H1793.77V1319.44H1832.04V1084.34C1866.97 1084.34 1903.25 1096.42 1903.25 1135.05C1903.25 1173.32 1884.09 1192.48 1854.53 1201.21L1856.23 1216.65L1967.72 1347.27L2013.06 1356.01L1981.81 1319.43H2093.32L2114.14 1274.08C2075.88 1296.91 2035.9 1303.97 1999.29 1296.91ZM1757.17 1068.55H1738.01V1211.62C1738.01 1263.68 1738.01 1305.65 1692.67 1305.65C1650.7 1305.65 1642.31 1281.14 1642.31 1214.98V1068.55H1612.41V1222.02C1612.41 1289.86 1623.15 1331.5 1692.67 1331.5C1758.84 1331.5 1757.17 1253.27 1757.17 1218.34V1068.55ZM954.536 1319.43H984.107V1068.55H954.536V1319.43ZM1529.14 1068.55L1516.7 1091.74L1396.47 1319.44H1433.09L1481.78 1218.35H1541.21L1563.73 1319.44H1600.33L1535.85 1068.57L1529.14 1068.55ZM1516.7 1190.47H1495.89L1516.7 1144.79L1522.09 1133.04L1537.51 1190.47H1516.7Z" fill="white"/>
<path fill-rule="evenodd" clip-rule="evenodd" d="M1361.9 1381.2L1449.9 975.534H1413.28L1394.15 1068.55H1210.79V1260.32L1048.59 1068.55H1026.09V1319.43H1048.59V1127.99L1210.78 1319.43H1236.63V1089.73C1254.09 1084.35 1268.2 1084.35 1283.64 1093.08V1319.44H1312.85V1093.08C1326.99 1081.65 1361.89 1080.98 1387.75 1098.45L1327.97 1402.38L1516.7 1398.35L1534.18 1398.01L1541.22 1363.76L1516.7 1366.11L1361.9 1381.2ZM874.642 1068.55L862.204 1092.05L771.87 1265.34C768.16 1251.57 763.128 1239.48 754.412 1230.77C719.485 1183.74 635.856 1124.3 630.837 1063.51C627.127 1019.85 660.369 988.62 704.038 985.261C735.256 983.251 778.938 1009.45 791.013 1033.96L818.885 1016.51C796.045 976.533 735.256 966.131 700.329 966.131C670.783 966.131 641.238 984.937 620.733 1006.41C604.625 1022.89 593.886 1041.02 592.537 1053.09V1072.25C536.78 1051.43 472.307 1066.87 475.679 1143.44C479.376 1188.78 557.609 1216.65 568.024 1242.84C578.439 1267.35 585.481 1300.26 536.78 1301.96C496.483 1305.64 481.036 1277.77 481.036 1274.08C463.578 1296.91 376.616 1307.31 367.862 1296.91V1199.2H456.523V1180.05H367.862V1086.02C395.734 1082.68 426.991 1082.68 460.219 1086.02L461.905 1066.88H336.306V1068.55H325.891L237.23 1248.24L205.662 1068.55H195.247L265.102 974.535H231.874L115.327 1147.15H104.926L61.2567 974.535H31.7116L69.9984 1182.06L28.3525 1392.63H61.2567L111.631 1183.74L178.127 1094.75L218.1 1319.43H230.188L336.306 1105.15V1319.43H461.905L472.32 1301.96C488.091 1317.73 510.607 1319.43 531.423 1319.43H550.58V1366.43C568.037 1381.86 593.237 1394.63 620.746 1400.68C667.774 1411.77 721.521 1404.05 754.425 1361.4C763.141 1348.97 768.186 1335.2 771.883 1319.44H778.938L827.627 1218.35H886.73L909.22 1319.44H945.833L881.348 1068.57L874.642 1068.55ZM662.042 1390.94C644.922 1390.27 631.498 1387.95 620.72 1383.56C591.512 1372.14 579.411 1347.97 559.269 1317.74C618.386 1310.69 625.441 1274.1 606.298 1230.78C590.514 1199.2 501.852 1152.18 501.852 1120.95C501.852 1068.55 571.383 1068.55 594.197 1113.9L597.556 1101.81C602.939 1116.92 610.993 1130.35 620.72 1142.78C652.639 1184.4 702.326 1215.64 726.527 1258.62C761.455 1323.12 721.158 1390.94 662.042 1390.94ZM862.204 1190.47H841.388L862.204 1144.79L867.587 1133.04L883.358 1190.47H862.204ZM2326.4 1068.55H2300.54V1260.32L2138.34 1068.55H2115.82V1319.43H2138.34V1127.99L2300.54 1319.43H2326.4V1089.73C2343.86 1084.35 2357.97 1084.35 2373.39 1093.08V1319.44H2403.28V1093.08C2418.73 1080.98 2437.89 1082.68 2471.12 1094.75V1068.55H2326.4ZM1042.54 1474.23C1036.5 1474.23 1030.11 1476.24 1023.73 1480.29C1017.35 1484.32 1012.32 1489.68 1008.63 1496.75C1004.84 1503.02 1002.86 1510.22 1002.91 1517.55C1002.91 1520.6 1003.59 1523.95 1004.92 1526.98C1006.27 1529.99 1008.63 1532.35 1011.64 1533.7C1014.66 1535.39 1018.02 1536.39 1022.06 1536.39C1027.76 1536.39 1033.47 1534.71 1038.84 1531.69C1042.87 1529.33 1046.91 1525.65 1051.28 1520.61L1049.25 1518.89C1046.6 1521.65 1043.39 1523.83 1039.84 1525.27C1036.82 1526.61 1033.81 1527.63 1031.11 1527.63C1027.75 1527.63 1025.07 1526.28 1022.72 1523.58C1020.36 1521.25 1019.36 1517.89 1019.36 1513.52C1019.36 1508.15 1020.36 1502.44 1022.72 1496.4C1025.07 1490.71 1028.1 1485.65 1032.45 1481.61C1035.82 1478.93 1039.16 1477.26 1042.86 1477.26C1044.21 1477.26 1045.19 1477.58 1046.22 1478.25C1046.89 1478.93 1047.22 1479.27 1047.22 1480.28C1047.22 1481.26 1046.22 1482.29 1044.52 1483.27C1042.51 1484.97 1041.17 1487.32 1041.17 1489.33C1041.17 1491.35 1041.84 1492.7 1043.18 1494.04C1043.84 1494.7 1044.63 1495.22 1045.5 1495.57C1046.37 1495.92 1047.3 1496.08 1048.23 1496.05C1049.4 1496.04 1050.55 1495.76 1051.6 1495.24C1052.65 1494.71 1053.56 1493.95 1054.26 1493.01C1055.25 1492.06 1056.03 1490.92 1056.55 1489.65C1057.07 1488.37 1057.32 1487.01 1057.28 1485.63C1057.31 1484.1 1057 1482.58 1056.36 1481.18C1055.72 1479.79 1054.77 1478.56 1053.59 1477.58C1050.93 1475.25 1047.23 1474.23 1042.54 1474.23ZM1111.72 1476.61C1108.67 1475.15 1105.35 1474.34 1101.98 1474.23C1098.3 1474.22 1094.65 1474.91 1091.22 1476.24C1089.83 1476.67 1088.47 1477.23 1087.19 1477.93C1082.33 1480.29 1077.99 1483.6 1074.44 1487.67C1070.76 1491.37 1067.71 1496.06 1065.03 1501.43C1062.66 1506.48 1061.68 1512.18 1061.68 1518.23C1061.68 1523.27 1063.02 1527.64 1066.36 1530.99C1069.72 1534.69 1074.09 1536.36 1080.12 1536.36C1083.83 1536.36 1087.53 1535.69 1091.21 1534.35C1101.35 1530.55 1109.73 1523.13 1114.73 1513.52C1118.75 1506.81 1120.77 1499.76 1120.77 1492.72C1120.77 1489.34 1120.08 1485.97 1118.41 1483.29C1116.92 1480.43 1114.58 1478.1 1111.72 1476.61ZM1101.98 1502.77C1100.3 1509.51 1097.96 1515.53 1095.26 1520.9C1094.06 1523.33 1092.7 1525.69 1091.21 1527.96C1090.38 1529.22 1089.36 1530.35 1088.2 1531.33C1086.98 1532.36 1085.44 1532.95 1083.83 1533C1083 1532.99 1082.19 1532.81 1081.44 1532.46C1080.69 1532.11 1080.02 1531.61 1079.47 1530.99C1078.12 1529.64 1077.8 1527.97 1077.8 1525.94C1077.8 1517.89 1079.47 1508.84 1083.51 1498.73C1086.21 1491.37 1088.89 1485.97 1091.22 1482.63C1091.91 1481.28 1092.91 1480.6 1093.58 1479.6C1095.17 1478.25 1097.21 1477.54 1099.29 1477.59C1100.02 1477.62 1100.74 1477.81 1101.38 1478.16C1102.02 1478.51 1102.57 1479 1102.99 1479.6C1104.34 1480.95 1104.66 1482.63 1104.66 1484.99C1104.66 1490.34 1103.99 1496.4 1101.98 1502.77ZM1147.31 1526.61C1146.64 1527.29 1145.97 1527.63 1145.3 1527.63C1144.97 1527.63 1144.3 1527.63 1143.95 1526.96C1143.61 1526.61 1143.61 1526.28 1143.61 1525.61C1143.61 1524.6 1144.3 1521.92 1145.3 1517.53L1165.44 1449.71L1166.79 1444.34H1163.1L1141.29 1448.36L1140.26 1450.75C1142.96 1450.75 1144.63 1451.06 1145.97 1451.73C1146.98 1452.42 1147.31 1453.42 1147.31 1454.43C1147.31 1455.43 1146.64 1457.44 1145.97 1460.8L1128.18 1520.91C1127.16 1524.28 1126.83 1526.97 1126.83 1528.64C1126.83 1530.65 1127.5 1532.34 1129.17 1534.01C1130.86 1535.7 1133.21 1536.37 1136.24 1536.37C1139.25 1536.37 1141.95 1535.37 1144.97 1533.36C1148.65 1530.67 1152.69 1525.97 1157.05 1519.25L1154.36 1518.24C1152.01 1522.26 1149.68 1525.28 1147.31 1526.61ZM1443.85 1476.61C1440.8 1475.15 1437.47 1474.34 1434.09 1474.23C1430.42 1474.23 1426.7 1474.91 1423.35 1476.24C1421.96 1476.67 1420.61 1477.24 1419.32 1477.93C1414.28 1480.29 1410.28 1483.64 1406.56 1487.67C1402.89 1491.37 1399.84 1496.06 1397.16 1501.43C1394.79 1506.48 1393.78 1512.18 1393.78 1518.23C1393.78 1523.27 1395.13 1527.64 1398.49 1530.99C1401.86 1534.69 1406.22 1536.36 1412.26 1536.36C1415.94 1536.36 1419.63 1535.69 1423.34 1534.35C1433.48 1530.55 1441.85 1523.13 1446.84 1513.52C1450.73 1507.27 1452.82 1500.07 1452.9 1492.72C1452.9 1489.34 1452.24 1485.97 1450.54 1483.29C1449.04 1480.43 1446.71 1478.1 1443.85 1476.61ZM1434.09 1502.77C1432.53 1509.04 1430.28 1515.12 1427.37 1520.9C1426.18 1523.33 1424.83 1525.69 1423.34 1527.96C1422.33 1529.3 1421.34 1530.64 1420.33 1531.33C1419.1 1532.36 1417.56 1532.95 1415.95 1533C1415.12 1532.99 1414.31 1532.8 1413.56 1532.45C1412.81 1532.11 1412.14 1531.61 1411.59 1530.99C1410.27 1529.64 1409.92 1527.97 1409.92 1525.94C1409.92 1517.89 1411.59 1508.84 1415.61 1498.73C1418.3 1491.37 1420.98 1485.97 1423.34 1482.63C1424.03 1481.28 1425.04 1480.6 1425.7 1479.6C1427.28 1478.25 1429.31 1477.54 1431.4 1477.59C1432.13 1477.62 1432.84 1477.81 1433.48 1478.16C1434.12 1478.51 1434.68 1479 1435.09 1479.6C1436.44 1480.95 1436.79 1482.63 1436.79 1484.99C1436.83 1491.02 1435.92 1497.02 1434.09 1502.77ZM1383.38 1444.34C1382.11 1444.3 1380.85 1444.55 1379.69 1445.08C1378.53 1445.6 1377.5 1446.38 1376.69 1447.36C1374.67 1449.03 1374 1451.39 1374 1454.08C1374 1456.75 1374.67 1458.77 1376.69 1460.8C1378.34 1462.48 1380.7 1463.48 1383.38 1463.48C1386.07 1463.48 1388.09 1462.48 1390.13 1460.8C1391.8 1458.79 1392.81 1456.75 1392.81 1454.08C1392.81 1451.39 1392.12 1449.03 1390.13 1447.36C1389.3 1446.39 1388.26 1445.61 1387.1 1445.08C1385.93 1444.56 1384.66 1444.31 1383.38 1444.34ZM1519.41 1520.59C1518.05 1522.92 1516.4 1524.61 1515.02 1525.94C1514.36 1526.28 1514.04 1526.28 1513.7 1526.28C1513.35 1526.28 1512.99 1526.28 1512.69 1525.94C1512.32 1525.58 1512.08 1525.11 1512 1524.6C1512 1523.92 1512.33 1522.25 1512.99 1519.9L1521.39 1492.03C1522.4 1488.67 1523.09 1485.65 1523.09 1483.29C1523.09 1480.95 1522.25 1478.69 1520.73 1476.92C1519.06 1475.25 1517.03 1474.23 1514.67 1474.23C1512.31 1474.23 1509.63 1475.25 1506.62 1476.61C1503.94 1478.27 1500.56 1481.28 1496.54 1485.65C1493.86 1488.33 1489.82 1494.05 1484.43 1502.11L1492.53 1474.25H1488.49L1466.67 1478.28L1465.99 1480.63C1467.98 1480.63 1469.68 1480.63 1470.34 1480.97C1471.03 1481.29 1471.69 1481.64 1472.02 1482.31C1472.37 1482.64 1472.37 1483.3 1472.37 1483.99C1472.37 1485.66 1472.02 1488.68 1470.67 1492.73L1458.58 1534.7H1475.05L1480.42 1515.21C1486.14 1503.79 1491.85 1495.41 1497.88 1489.68C1500.24 1487.33 1502.26 1486.34 1503.94 1486.34C1504.44 1486.42 1504.91 1486.66 1505.28 1487.01C1505.61 1487.33 1505.61 1487.68 1505.61 1488C1505.61 1489.02 1505.61 1490.36 1504.92 1492.04L1496.87 1519.91C1495.88 1523.6 1495.19 1526.29 1495.19 1527.97C1495.16 1528.99 1495.35 1530 1495.76 1530.93C1496.17 1531.86 1496.78 1532.69 1497.55 1533.35C1498.9 1534.7 1501.22 1535.36 1503.94 1535.36C1510.98 1535.36 1517.36 1529.98 1523.74 1519.24L1521.38 1517.89C1520.43 1518.89 1520.07 1519.9 1519.41 1520.59ZM1387.41 1474.23H1383.38L1361.57 1477.93L1360.55 1480.6C1361.57 1480.29 1362.23 1480.29 1362.91 1480.29C1364.26 1480.29 1365.6 1480.6 1366.29 1481.63C1367.27 1482.31 1367.64 1482.98 1367.64 1483.99C1367.64 1485.66 1367.29 1487.68 1366.29 1490.72L1357.22 1521.95C1357.22 1522.27 1357.22 1522.27 1356.87 1522.62C1356.55 1524.62 1356.21 1526.63 1356.21 1527.98C1356.21 1529.33 1356.53 1530.67 1356.87 1532.01C1357.53 1532.7 1357.88 1533.36 1358.57 1534.02C1360.24 1535.71 1362.6 1536.39 1365.26 1536.39C1372.66 1536.39 1379.72 1530.68 1386.08 1519.27L1384.08 1517.92C1381.4 1522.29 1379.04 1524.97 1377.01 1526.63C1376.72 1526.96 1376.36 1527.23 1375.96 1527.41C1375.56 1527.58 1375.12 1527.67 1374.68 1527.66C1374.35 1527.66 1374.02 1527.32 1373.67 1526.98C1373.01 1526.63 1373.01 1526.31 1373.01 1525.63C1373.01 1524.96 1373.33 1523.27 1374.02 1520.6L1387.41 1474.23ZM1311.52 1477.59C1309.18 1475.25 1305.82 1474.23 1301.13 1474.23C1294.75 1474.23 1288.69 1476.24 1282.31 1480.29C1275.88 1484.31 1270.66 1490 1267.21 1496.75C1263.32 1503 1261.22 1510.19 1261.15 1517.55C1261.15 1520.6 1262.17 1523.95 1263.51 1526.98C1264.86 1529.99 1267.21 1532.35 1270.23 1533.7C1273.24 1535.39 1276.61 1536.39 1280.31 1536.39C1286.34 1536.39 1291.71 1534.71 1297.43 1531.69C1301.46 1529.33 1305.48 1525.65 1309.18 1520.61L1307.51 1518.92C1305.04 1521.74 1301.93 1523.92 1298.44 1525.3C1295.41 1526.63 1292.39 1527.66 1289.7 1527.66C1286.33 1527.66 1283.64 1526.31 1281.3 1523.61C1278.96 1521.28 1277.95 1517.92 1277.95 1513.55C1277.95 1508.18 1278.96 1502.47 1281.3 1496.43C1283.66 1490.73 1286.69 1485.67 1291.05 1481.64C1294.42 1478.96 1297.77 1477.28 1301.46 1477.28C1302.81 1477.28 1303.8 1477.61 1304.84 1478.28C1305.5 1478.96 1305.82 1479.29 1305.82 1480.3C1305.82 1481.29 1304.84 1482.31 1303.14 1483.3C1302.14 1483.97 1301.31 1484.87 1300.73 1485.92C1300.15 1486.98 1299.83 1488.15 1299.79 1489.36C1299.79 1491.38 1300.45 1492.73 1301.79 1494.07C1303.12 1495.4 1304.82 1496.08 1306.5 1496.08C1307.66 1496.03 1308.8 1495.73 1309.84 1495.21C1310.88 1494.69 1311.8 1493.95 1312.53 1493.04C1314.55 1491.03 1315.24 1488.68 1315.24 1485.66C1315.24 1482.3 1314.2 1479.6 1311.52 1477.59ZM1246.06 1474.23C1241.36 1474.23 1236.32 1475.25 1231.27 1477.26C1229.26 1478.25 1226.9 1479.27 1224.88 1480.6C1217.84 1484.81 1211.96 1490.69 1207.77 1497.74C1205.57 1501.65 1203.88 1505.82 1202.73 1510.16C1202.05 1513.14 1201.71 1516.18 1201.7 1519.23C1201.7 1521.57 1202.05 1523.58 1202.73 1525.61C1203.4 1527.62 1204.39 1529.29 1205.73 1530.98C1208.43 1534.67 1213.46 1536.35 1220.86 1536.35C1224.55 1536.35 1227.91 1535.67 1231.27 1534.67C1233.28 1533.99 1234.98 1533.32 1236.64 1532.66C1241.36 1529.97 1246.06 1525.61 1251.09 1519.55L1249.08 1517.88C1245.05 1521.56 1241.36 1524.26 1238.34 1525.61C1235.97 1526.59 1233.63 1527.62 1231.28 1527.62C1230.61 1527.94 1229.94 1527.94 1229.27 1527.94C1226.24 1527.94 1223.55 1526.94 1221.88 1524.93C1220.89 1523.91 1220.1 1522.7 1219.59 1521.38C1219.07 1520.05 1218.82 1518.63 1218.86 1517.2C1218.86 1515.18 1219.17 1512.83 1219.53 1510.15C1224.23 1509.82 1228.25 1509.14 1231.28 1508.46C1231.61 1508.46 1231.96 1508.14 1232.3 1508.14C1236.99 1506.8 1241.36 1505.12 1245.05 1502.44C1248.76 1500.07 1252.09 1496.74 1254.46 1492.7C1256.47 1489.67 1257.15 1486.65 1257.15 1483.64C1257.15 1480.94 1256.47 1478.59 1254.46 1476.91C1252.75 1475.25 1249.75 1474.23 1246.06 1474.23ZM1240.34 1491.69C1239.22 1494.69 1237.51 1497.44 1235.31 1499.77C1233.96 1501.11 1232.62 1502.11 1231.27 1503.13C1230.6 1503.76 1229.79 1504.22 1228.91 1504.48C1226.89 1505.47 1223.88 1506.15 1220.2 1506.84C1223.2 1496.76 1226.9 1489.03 1231.27 1483.66C1231.6 1483.31 1231.95 1483.31 1231.95 1482.99C1234.63 1479.97 1236.99 1478.62 1238.99 1478.62C1240 1478.62 1241 1478.94 1241.69 1479.62C1242.36 1480.3 1242.7 1481.29 1242.7 1482.64C1242.69 1485.31 1241.69 1488.33 1240.34 1491.69ZM1184.59 1526.61C1183.96 1527.23 1183.11 1527.59 1182.22 1527.63C1181.9 1527.63 1181.22 1527.63 1180.88 1526.96C1180.55 1526.61 1180.55 1526.28 1180.55 1525.61C1180.55 1524.6 1181.22 1521.92 1182.22 1517.53L1202.73 1448.04L1203.74 1444.34H1200.03L1178.21 1448.36L1177.53 1450.75C1179.89 1450.75 1181.55 1451.06 1182.89 1451.73C1183.93 1452.42 1184.24 1453.42 1184.24 1454.43C1184.24 1455.43 1183.93 1457.44 1182.89 1460.8L1165.42 1520.59L1165.11 1520.9C1164.1 1524.27 1163.76 1526.96 1163.76 1528.63C1163.76 1530.32 1164.09 1531.65 1165.42 1533C1165.42 1533.34 1165.77 1533.67 1166.1 1534C1167.78 1535.69 1170.13 1536.36 1173.15 1536.36C1176.18 1536.36 1179.2 1535.36 1181.88 1533.35C1185.92 1530.65 1189.94 1525.96 1193.96 1519.24L1191.29 1518.23C1188.96 1522.26 1186.62 1525.28 1184.59 1526.61ZM1347.13 1483.65H1355.51L1356.86 1478.94L1357.87 1476.26H1349.49L1354.51 1458.45H1351.16C1345.79 1464.51 1341.41 1468.88 1337.39 1471.56C1333.07 1474.7 1328.32 1477.18 1323.28 1478.94L1322.29 1483.65H1331.01L1320.59 1518.9C1319.61 1522.61 1318.92 1525.96 1318.92 1528.32C1318.9 1529.41 1319.14 1530.49 1319.6 1531.48C1320.07 1532.46 1320.75 1533.33 1321.61 1534.01C1322.96 1535.7 1325.3 1536.37 1328.32 1536.37C1331.7 1536.37 1335.39 1535.02 1339.06 1532.69C1342.44 1530.33 1345.81 1526.62 1348.82 1521.28L1346.46 1519.93C1343.8 1523.61 1341.41 1526.31 1339.41 1527.66C1338.73 1528.33 1338.06 1528.66 1337.39 1528.66C1336.73 1528.66 1336.4 1528.33 1336.07 1527.98C1335.72 1527.66 1335.38 1527.31 1335.38 1526.63C1335.38 1525.3 1335.7 1523.62 1336.39 1521.29L1347.13 1483.65Z" fill="white"/>
</g>
</g>
<defs>
<clipPath id="clip0_83_46">
<rect width="2500" height="2500" fill="white"/>
</clipPath>
</defs>
</svg>
